<svg xmlns="http://www.w3.org/2000/svg" aria-hidden="true" style="position:absolute;width:0;height:0;overflow:hidden"><defs><symbol id="icon-icon-cats" viewBox="0 0 32 32"><path d="M11.537.81c-.418.098-.732.28-1.09.637-.29.287-.498.58-.697.977-1.192 2.385-.79 6.32.883 8.575.227.307.623.713.893.915.885.668 1.88.703 2.678.095.818-.625 1.377-1.83 1.59-3.422.053-.41.063-1.68.012-2.1-.205-1.755-.727-3.208-1.545-4.305a5.572 5.572 0 0 0-.86-.875c-.235-.177-.68-.407-.912-.47-.207-.057-.755-.073-.95-.027zM21.365 1.315c-.777.153-1.59.748-2.262 1.653-.865 1.163-1.45 2.7-1.67 4.395-.07.54-.063 1.745.012 2.235.175 1.117.547 1.973 1.105 2.527.477.48 1.078.703 1.688.63 1.453-.18 2.885-1.765 3.65-4.04.635-1.888.703-3.875.183-5.39-.508-1.478-1.538-2.243-2.705-2.01zM5.237 9.475c-1.022.162-1.792.988-2.14 2.297-.198.752-.225 1.79-.07 2.703.357 2.125 1.588 4.077 3.043 4.832.745.385 1.487.453 2.125.188.94-.39 1.558-1.4 1.76-2.883.04-.297.04-1.18-.002-1.525-.325-2.755-2.022-5.173-3.91-5.575a2.963 2.963 0 0 0-.805-.037zM26.425 11.5c-.9.193-1.782.825-2.515 1.805-.795 1.065-1.33 2.455-1.485 3.855a8.97 8.97 0 0 0 .012 1.503c.305 2.37 1.915 3.508 3.738 2.648.977-.462 1.863-1.415 2.495-2.683 1.2-2.4 1.122-5.213-.183-6.515a2.223 2.223 0 0 0-2.063-.613zM15.563 15.947c-1.655.295-3.742 2.033-5.593 4.653-1.447 2.053-2.467 4.262-2.772 6.012-.072.42-.08 1.17-.015 1.457.103.448.275.742.61 1.055.56.517 1.232.823 2.075.94.438.06 1.322.038 1.885-.047.752-.117 1.387-.27 2.81-.68 1.375-.395 1.76-.477 2.14-.453.483.032.845.15 1.885.608.745.328 1.16.483 1.515.57 1.325.32 2.44-.098 3.587-1.343.343-.37.448-.55.555-.942.06-.225.065-.275.065-.802 0-.477-.008-.613-.058-.887-.295-1.668-1.172-3.683-2.44-5.6-1.508-2.28-3.277-3.922-4.755-4.41-.538-.178-.995-.217-1.495-.13z"/></symbol></defs></svg>